<svg width="251" height="99" viewBox="0 0 251 99" fill="none" xmlns="http://www.w3.org/2000/svg">
<path d="M103.224 50.0667L100.557 49.2913L103.224 50.0667ZM0.657316 29.5334L14.4491 0.580525L32.6272 27.001L0.657316 29.5334ZM247.279 98.2042C224.757 79.4528 193.509 51.3727 165.411 36.2685C151.319 28.6932 138.584 24.7082 128.428 26.3154C123.441 27.1045 119.028 29.2476 115.273 33.0959C111.486 36.9771 108.254 42.7132 105.891 50.842L100.557 49.2913C103.095 40.5621 106.699 33.9291 111.297 29.2166C115.927 24.4712 121.448 21.796 127.56 20.8289C139.599 18.9237 153.714 23.6744 168.041 31.3759C196.781 46.8252 228.646 75.4626 250.833 93.9355L247.279 98.2042ZM105.891 50.842C102.883 61.1873 102.376 68.493 103.335 73.3932C104.265 78.1482 106.52 80.4987 109.253 81.5321C112.192 82.6432 116.248 82.4446 120.992 80.8126C125.683 79.1993 130.731 76.2872 135.415 72.4641C144.882 64.7364 152.22 53.8441 152.65 43.5047C152.861 38.4325 151.425 33.399 147.624 28.7244C143.785 24.0039 137.418 19.513 127.564 15.8424L129.503 10.6371C139.97 14.5358 147.287 19.5067 151.933 25.2198C156.617 30.979 158.466 37.3511 158.2 43.7358C157.676 56.3102 149.011 68.5366 138.927 76.7673C133.835 80.9234 128.221 84.2003 122.799 86.0653C117.431 87.9117 111.925 88.4806 107.289 86.7278C102.447 84.8972 99.115 80.7523 97.8838 74.4598C96.6811 68.3124 97.4382 60.0185 100.557 49.2913L105.891 50.842ZM127.564 15.8424C81.7801 -1.21085 45.0958 6.58456 22.4906 17.8496L20.0131 12.878C43.8755 0.986487 82.1578 -6.99767 129.503 10.6371L127.564 15.8424Z" fill="url(#paint0_linear_140_1162)"/>
<defs>
<linearGradient id="paint0_linear_140_1162" x1="0.493272" y1="-4.23373" x2="252.343" y2="102.318" gradientUnits="userSpaceOnUse">
<stop stop-color="#B9A11E"/>
<stop offset="1" stop-color="#B9A11E" stop-opacity="0"/>
</linearGradient>
</defs>
</svg>
