<svg width="298" height="116" viewBox="0 0 298 116" fill="none" xmlns="http://www.w3.org/2000/svg">
<path d="M175.614 58.8562L178.281 58.0809L175.614 58.8562ZM297.869 34.3814L284.757 5.11448L265.967 31.1036L297.869 34.3814ZM3.56439 115.825C30.3767 93.5005 67.6829 59.9765 101.236 41.9397C118.056 32.8981 133.368 28.0746 145.655 30.0189C151.707 30.9766 157.074 33.5822 161.633 38.2553C166.225 42.9613 170.113 49.8847 172.947 59.6316L178.281 58.0809C175.272 47.7336 171.012 39.9134 165.609 34.3761C160.174 28.8058 153.699 25.6682 146.523 24.5325C132.353 22.2902 115.661 27.8793 98.6062 37.0471C64.411 55.429 26.4879 89.5103 0.0101839 111.556L3.56439 115.825ZM172.947 59.6316C176.542 71.9995 177.17 80.8025 176.004 86.763C174.866 92.5783 172.075 95.5523 168.615 96.8606C164.95 98.2465 159.976 97.9743 154.261 96.0085C148.6 94.0613 142.528 90.5551 136.906 85.9662C125.562 76.7068 116.689 63.5954 116.167 51.0568C115.91 44.8849 117.661 38.7566 122.277 33.0806C126.93 27.3586 134.61 21.9596 146.415 17.5626L144.476 12.3572C132.059 16.9824 123.427 22.8614 117.967 29.5761C112.469 36.3366 110.305 43.8035 110.617 51.2878C111.232 66.0615 121.433 80.507 133.394 90.2694C139.424 95.1913 146.062 99.0623 152.454 101.261C158.793 103.441 165.217 104.084 170.58 102.056C176.148 99.9508 180.017 95.1825 181.455 87.8296C182.866 80.6219 181.987 70.8306 178.281 58.0809L172.947 59.6316ZM146.415 17.5626C204.059 -3.90831 249.677 7.56801 276.28 22.1734L278.953 17.3042C251.07 1.99651 203.773 -9.72926 144.476 12.3572L146.415 17.5626Z" fill="url(#paint0_linear_134_2024)"/>
<defs>
<linearGradient id="paint0_linear_134_2024" x1="298.065" y1="-5.8679" x2="-2.13086" y2="121.138" gradientUnits="userSpaceOnUse">
<stop stop-color="#B9A11E"/>
<stop offset="1" stop-color="#B9A11E" stop-opacity="0"/>
</linearGradient>
</defs>
</svg>
